# File created by Blade
# Date/Time:  Wed Sep 24 20:26:02 2014
# Frame Rate: 120.000 fps
#------------------------------------------------------
:FULLY-SPECIFIED
:DEGREES
658
root -6.514161 33.689200 0.715256 178.047285 -61.975350 -80.663852
Spine -33.422826 12.970467 -3.388610
Head -71.940819 14.862506 8.164706
LeftShoulder -10.179523 25.264630 15.389772
LeftArm 5.764838 38.183037 -69.066377
LeftForeArm 16.461092 -0.000000 14.759858
LeftHand -30.388782 -0.000000 -2.828771
LeftHandThumb1 -26.253704 0.000000 33.147579
RightShoulder -17.112967 8.695120 -20.018346
RightArm -30.268069 -30.447534 101.108038
RightForeArm -31.356500 0.000000 13.222765
RightHand -4.547180 -0.000000 22.531672
RightHandThumb1 -24.326973 -0.000000 -32.862282
LeftUpLeg -93.518551 20.716961 1.587439
LeftLeg -6.445138 -0.000000 0.000000
LeftFoot -7.709710 18.847853 -6.617905
LeftToeBase 4.820394 -0.000000 -0.000000
RightUpLeg 12.268308 -7.134381 -15.862703
RightLeg 20.579052 -0.000000 -0.000000
RightFoot 41.572109 1.480866 3.166962
RightToeBase 18.384299 -0.000000 -0.000000
659
root -6.510895 33.687499 0.717453 178.246166 -61.962779 -80.670175
Spine -33.483078 13.000513 -3.391476
Head -72.102466 14.889623 8.087469
LeftShoulder -10.198366 25.304676 15.358633
LeftArm 5.620010 38.384175 -69.285034
LeftForeArm 16.251779 0.000000 14.791401
LeftHand -30.598593 -0.000000 -2.645518
LeftHandThumb1 -26.253704 0.000000 33.147579
RightShoulder -17.150982 8.671626 -19.991983
RightArm -30.402404 -30.320833 101.099891
RightForeArm -31.510852 -0.000000 13.163445
RightHand -4.589863 -0.000000 22.525805
RightHandThumb1 -24.326973 -0.000000 -32.862282
LeftUpLeg -93.731255 20.734995 1.483212
LeftLeg -6.464786 -0.000000 0.000000
LeftFoot -7.690635 18.782536 -6.647037
LeftToeBase 4.752477 -0.000000 -0.000000
RightUpLeg 12.410274 -7.172939 -16.032646
RightLeg 20.618561 -0.000000 -0.000000
RightFoot 41.598889 1.493755 3.100271
RightToeBase 18.377597 -0.000000 -0.000000
660
root -6.506345 33.690054 0.720859 178.306850 -61.920915 -80.535619
Spine -33.497977 13.054587 -3.252638
Head -72.275621 14.941269 7.970293
LeftShoulder -10.264239 25.303997 15.260079
LeftArm 5.420209 38.401908 -69.560434
LeftForeArm 16.473944 0.000000 14.736309
LeftHand -30.290700 0.000000 -2.859587
LeftHandThumb1 -26.253704 0.000000 33.147579
RightShoulder -17.175120 8.655432 -20.017046
RightArm -30.479119 -30.150089 101.019526
RightForeArm -31.589408 -0.000000 13.142163
RightHand -4.547675 0.000000 22.759741
RightHandThumb1 -24.326973 -0.000000 -32.862282
LeftUpLeg -93.958138 20.773409 1.450960
LeftLeg -6.443624 -0.000000 0.000000
LeftFoot -7.654666 18.748454 -6.591297
LeftToeBase 4.812317 -0.000000 -0.000000
RightUpLeg 12.534704 -7.170211 -16.120453
RightLeg 20.681744 -0.000000 -0.000000
RightFoot 41.579691 1.572179 2.895425
RightToeBase 18.488244 -0.000000 -0.000000
661
root -6.509610 33.699270 0.734572 178.616529 -61.784650 -80.513624
Spine -33.724936 13.171421 -3.225991
Head -72.399649 15.062886 7.850716
LeftShoulder -10.362004 25.378094 15.144357
LeftArm 5.239522 38.580410 -69.789801
LeftForeArm 16.237428 -0.000000 14.840945
LeftHand -30.912005 -0.000000 -2.600984
LeftHandThumb1 -26.253704 0.000000 33.147579
RightShoulder -17.219442 8.621427 -19.994605
RightArm -30.553025 -30.031461 100.948959
RightForeArm -31.828717 -0.000000 13.028698
RightHand -4.547151 -0.000000 22.847036
RightHandThumb1 -24.326973 -0.000000 -32.862282
LeftUpLeg -94.303421 20.893627 1.324510
LeftLeg -6.461111 -0.000000 0.000000
LeftFoot -7.603438 18.748255 -6.564422
LeftToeBase 4.834367 -0.000000 -0.000000
RightUpLeg 12.429311 -7.011798 -16.210306
RightLeg 20.800630 -0.000000 -0.000000
RightFoot 41.685770 1.404247 3.082552
RightToeBase 18.111034 -0.000000 -0.000000
662
root -6.508107 33.705158 0.739323 178.797548 -61.727034 -80.445798
Spine -33.838141 13.195479 -3.143057
Head -72.560139 15.208110 7.707639
LeftShoulder -10.474644 25.472960 15.078715
LeftArm 5.121328 38.541255 -70.045417
LeftForeArm 16.476856 -0.000000 14.742597
LeftHand -30.534962 -0.000000 -2.793536
LeftHandThumb1 -26.253704 0.000000 33.147579
RightShoulder -17.204494 8.675386 -20.006222
RightArm -30.732135 -29.871128 100.972317
RightForeArm -32.122898 -0.000000 12.946115
RightHand -4.663225 -0.000000 22.787240
RightHandThumb1 -24.326973 -0.000000 -32.862282
LeftUpLeg -94.554357 20.946742 1.299706
LeftLeg -6.461432 -0.000000 0.000000
LeftFoot -7.543335 18.841656 -6.438993
LeftToeBase 4.951218 -0.000000 -0.000000
RightUpLeg 12.478598 -6.927458 -16.285258
RightLeg 20.852475 -0.000000 -0.000000
RightFoot 41.765988 1.533191 2.923204
RightToeBase 18.014436 -0.000000 -0.000000
663
root -6.506430 33.703403 0.743192 178.980601 -61.695821 -80.443080
Spine -33.891816 13.212204 -3.108799
Head -72.731355 15.333168 7.619209
LeftShoulder -10.544402 25.416789 15.004379
LeftArm 4.792339 38.698164 -70.372992
LeftForeArm 16.378420 -0.000000 14.791550
LeftHand -30.831431 -0.000000 -2.647602
LeftHandThumb1 -26.253704 0.000000 33.147579
RightShoulder -17.246114 8.664384 -19.974874
RightArm -30.841231 -29.841594 100.934085
RightForeArm -32.370867 -0.000000 12.886936
RightHand -4.612366 -0.000000 22.961285
RightHandThumb1 -24.326973 -0.000000 -32.862282
LeftUpLeg -94.744934 20.977111 1.263344
LeftLeg -6.464831 -0.000000 0.000000
LeftFoot -7.529379 18.874469 -6.355503
LeftToeBase 4.920704 -0.000000 -0.000000
RightUpLeg 12.606653 -6.874137 -16.423984
RightLeg 20.912389 -0.000000 -0.000000
RightFoot 41.736300 1.566348 2.905994
RightToeBase 18.263388 -0.000000 -0.000000
664
root -6.505302 33.704801 0.743399 179.143752 -61.638900 -80.431505
Spine -33.921107 13.279986 -3.098273
Head -72.978807 15.421173 7.492867
LeftShoulder -10.610626 25.422067 14.933248
LeftArm 4.588520 38.653835 -70.618299
LeftForeArm 16.806090 0.000000 14.797555
LeftHand -30.875220 -0.000000 -2.999972
LeftHandThumb1 -26.253704 0.000000 33.147579
RightShoulder -17.291259 8.647111 -19.897849
RightArm -30.950409 -29.756469 100.843265
RightForeArm -32.590074 -0.000000 12.865415
RightHand -4.552763 -0.000000 23.054675
RightHandThumb1 -24.326973 -0.000000 -32.862282
LeftUpLeg -94.898215 21.048269 1.282069
LeftLeg -6.487001 -0.000000 0.000000
LeftFoot -7.512073 18.936026 -6.325575
LeftToeBase 4.932797 -0.000000 -0.000000
RightUpLeg 12.727680 -6.775417 -16.534641
RightLeg 21.000094 -0.000000 -0.000000
RightFoot 41.752135 1.511220 2.924442
RightToeBase 18.033393 -0.000000 -0.000000
665
root -6.499285 33.701765 0.740339 179.127997 -61.619342 -80.253682
Spine -33.924321 13.333172 -2.954936
Head -73.124923 15.532929 7.315576
LeftShoulder -10.677973 25.367140 14.845349
LeftArm 4.249850 38.696029 -70.967105
LeftForeArm 16.633269 -0.000000 14.864068
LeftHand -31.059527 0.000000 -2.690502
LeftHandThumb1 -26.253704 0.000000 33.147579
RightShoulder -17.334901 8.661218 -19.957275
RightArm -31.095516 -29.565064 100.819759
RightForeArm -32.840017 -0.000000 12.809282
RightHand -4.765628 -0.000000 22.895575
RightHandThumb1 -24.326973 -0.000000 -32.862282
LeftUpLeg -95.056168 21.083519 1.374811
LeftLeg -6.469218 -0.000000 0.000000
LeftFoot -7.508064 18.978579 -6.261172
LeftToeBase 4.893792 -0.000000 -0.000000
RightUpLeg 12.928451 -6.696076 -16.568852
RightLeg 21.016162 -0.000000 -0.000000
RightFoot 41.808556 1.443772 2.975041
RightToeBase 18.103744 -0.000000 -0.000000
666
root -6.495101 33.703670 0.743106 179.292233 -61.570494 -80.238350
Spine -33.967996 13.393382 -2.934736
Head -73.315794 15.673480 7.192917
LeftShoulder -10.767007 25.419791 14.784582
LeftArm 4.121595 38.601270 -71.205509
LeftForeArm 17.000036 0.000000 14.818181
LeftHand -30.958815 0.000000 -3.040341
LeftHandThumb1 -26.253704 0.000000 33.147579
RightShoulder -17.315164 8.670777 -19.922860
RightArm -31.288069 -29.496778 100.834528
RightForeArm -33.097997 -0.000000 12.764691
RightHand -4.635519 -0.000000 22.925166
RightHandThumb1 -24.326973 -0.000000 -32.862282
LeftUpLeg -95.192481 21.148070 1.436454
LeftLeg -6.512719 -0.000000 0.000000
LeftFoot -7.455311 19.092130 -6.223745
LeftToeBase 4.864622 -0.000000 -0.000000
RightUpLeg 13.047005 -6.612397 -16.681749
RightLeg 21.079185 -0.000000 -0.000000
RightFoot 41.866300 1.507283 2.886864
RightToeBase 18.043329 -0.000000 -0.000000
667
root -6.494724 33.706710 0.750115 179.607527 -61.499930 -80.321082
Spine -34.118747 13.476242 -3.034504
Head -73.476666 15.811612 7.140226
LeftShoulder -10.797311 25.432154 14.791262
LeftArm 3.866111 38.597556 -71.510478
LeftForeArm 17.078881 -0.000000 14.856635
LeftHand -31.038540 -0.000000 -2.972673
LeftHandThumb1 -26.253704 0.000000 33.147579
RightShoulder -17.359567 8.589159 -19.837317
RightArm -31.428869 -29.582400 100.853842
RightForeArm -33.017392 -0.000000 12.765667
RightHand -4.759072 -0.000000 23.002135
RightHandThumb1 -24.326973 -0.000000 -32.862282
LeftUpLeg -95.396153 21.222387 1.375803
LeftLeg -6.571636 -0.000000 0.000000
LeftFoot -7.403252 19.167652 -6.179571
LeftToeBase 4.891723 -0.000000 -0.000000
RightUpLeg 13.070930 -6.521340 -16.842293
RightLeg 21.175513 -0.000000 -0.000000
RightFoot 41.917080 1.501389 2.953563
RightToeBase 18.023566 -0.000000 -0.000000
668
root -6.486819 33.709929 0.746381 179.494030 -61.438974 -80.072350
Spine -34.067272 13.623007 -2.872559
Head -73.667261 15.827112 7.031820
LeftShoulder -10.799514 25.427482 14.739038
LeftArm 3.695894 38.652540 -71.813454
LeftForeArm 17.155970 -0.000000 14.814247
LeftHand -31.058810 0.000000 -2.976834
LeftHandThumb1 -26.253704 0.000000 33.147579
RightShoulder -17.382365 8.514036 -19.839108
RightArm -31.479094 -29.577951 100.819584
RightForeArm -33.151163 -0.000000 12.644773
RightHand -4.572258 -0.000000 23.144142
RightHandThumb1 -24.326973 -0.000000 -32.862282
LeftUpLeg -95.511256 21.310446 1.538270
LeftLeg -6.550006 -0.000000 0.000000
LeftFoot -7.398219 19.225025 -6.210470
LeftToeBase 5.050762 -0.000000 -0.000000
RightUpLeg 13.248032 -6.416605 -16.837816
RightLeg 21.236695 -0.000000 -0.000000
RightFoot 41.964852 1.403000 3.008396
RightToeBase 17.984302 -0.000000 -0.000000
669
root -6.482153 33.714613 0.750410 179.637572 -61.360520 -80.024510
Spine -34.102630 13.738250 -2.830760
Head -73.896114 15.868973 6.925886
LeftShoulder -10.794188 25.305731 14.703258
LeftArm 3.298500 38.624743 -72.216352
LeftForeArm 17.389154 -0.000000 14.817383
LeftHand -31.295741 -0.000000 -2.987591
LeftHandThumb1 -26.253704 0.000000 33.147579
RightShoulder -17.409840 8.614113 -19.882360
RightArm -31.772779 -29.602171 100.934507
RightForeArm -33.092363 -0.000000 12.620034
RightHand -4.628766 -0.000000 23.355245
RightHandThumb1 -24.326973 -0.000000 -32.862282
LeftUpLeg -95.693103 21.399416 1.537950
LeftLeg -6.569393 -0.000000 0.000000
LeftFoot -7.367463 19.266642 -6.266172
LeftToeBase 5.001737 -0.000000 -0.000000
RightUpLeg 13.348841 -6.350264 -16.949838
RightLeg 21.267691 -0.000000 -0.000000
RightFoot 41.943647 1.481809 2.990830
RightToeBase 18.110215 -0.000000 -0.000000
670
root -6.477361 33.718383 0.752143 179.683715 -61.260475 -79.885330
Spine -34.133809 13.877361 -2.728343
Head -74.092590 15.930105 6.801524
LeftShoulder -10.829918 25.296347 14.639429
LeftArm 3.052549 38.711965 -72.551331
LeftForeArm 17.116163 -0.000000 14.800313
LeftHand -31.287618 -0.000000 -2.887062
LeftHandThumb1 -26.253704 0.000000 33.147579
RightShoulder -17.422274 8.577594 -19.896658
RightArm -31.892701 -29.638394 100.953443
RightForeArm -33.133609 -0.000000 12.552752
RightHand -4.597939 -0.000000 23.525573
RightHandThumb1 -24.326973 -0.000000 -32.862282
LeftUpLeg -95.881399 21.514042 1.548898
LeftLeg -6.575900 -0.000000 0.000000
LeftFoot -7.342425 19.225131 -6.370904
LeftToeBase 4.929952 -0.000000 -0.000000
RightUpLeg 13.445623 -6.292806 -17.022887
RightLeg 21.313776 -0.000000 -0.000000
RightFoot 41.940617 1.425351 3.013956
RightToeBase 17.984396 -0.000000 -0.000000
